<?xml version="1.0" encoding="UTF-8"?>
<svg xmlns="http://www.w3.org/2000/svg" xmlns:xlink="http://www.w3.org/1999/xlink" viewBox="0 0 64 64" width="64px" height="64px">
<g id="surface87857083">
<path style=" stroke:none;fill-rule:nonzero;fill:rgb(92.941177%,70.588237%,34.509805%);fill-opacity:1;" d="M 32 6 C 17.640625 6 6 17.640625 6 32 C 6 46.359375 17.640625 58 32 58 C 46.359375 58 58 46.359375 58 32 C 58 17.640625 46.359375 6 32 6 Z M 32 10 C 44.148438 10 54 19.851562 54 32 C 54 44.148438 44.148438 54 32 54 C 19.851562 54 10 44.148438 10 32 C 10 19.851562 19.851562 10 32 10 Z M 30.5 14 L 31 18 L 33 18 L 33.5 14 Z M 44.023438 18.566406 L 33.25 28.203125 C 32.847656 28.070312 32.425781 28 32 28 C 29.789062 28 28 29.789062 28 32 C 28 34.210938 29.789062 36 32 36 C 32.242188 36 32.484375 35.976562 32.722656 35.933594 L 40.816406 42.640625 L 42.640625 40.816406 L 35.933594 32.722656 C 36.050781 32.0625 36.003906 31.386719 35.796875 30.75 L 45.4375 19.980469 Z M 14 30.5 L 14 33.5 L 18 33 L 18 31 Z M 50 30.5 L 46 31 L 46 33 L 50 33.5 Z M 31 46 L 30.5 50 L 33.5 50 L 33 46 Z M 31 46 "/>
</g>
</svg>
